<svg width="23" height="46" viewBox="0 0 23 46" fill="none" xmlns="http://www.w3.org/2000/svg">
<path d="M0.399973 33.9C-0.500027 35.7 0.299973 37.9 2.09997 38.8C3.89997 39.7 6.09997 38.9 6.99997 37.1L8.49997 34.1L5.39997 23.8L0.399973 33.9Z" fill="#92C746"/>
<path d="M20.9 0.399973C19.1 -0.500027 16.9 0.299973 16 2.09997L10.1 14.2L13.2 24.5L22.6 5.39997C23.5 3.49997 22.8 1.29997 20.9 0.399973Z" fill="#92C746"/>
<path d="M11.3 43.4C11.9 45.3 14 46.4 15.9 45.8C17.8 45.2 18.9 43.1 18.4 41.2L13.3 24.4L8.5 34.1L11.3 43.4Z" fill="#D50F67"/>
<path d="M7.99997 7.39997C7.39997 5.49997 5.29997 4.39997 3.39997 4.89997C1.49997 5.49997 0.399974 7.59997 0.899974 9.49997L5.29997 23.8L10.1 14.1L7.99997 7.39997Z" fill="#D50F67"/>
<path d="M5.29999 23.8L8.49999 34.2L13.2 24.5L10.1 14.2L5.29999 23.8Z" fill="#3BA510"/>
</svg>
