<svg width="210" height="165" viewBox="0 0 210 165" fill="none" xmlns="http://www.w3.org/2000/svg">
<path fill-rule="evenodd" clip-rule="evenodd" d="M140.329 30.9762C123.903 13.1415 107.478 15.9589 104.661 16.4269C106.069 16.8959 107.478 47.8721 124.843 64.2981C136.576 75.0912 160.511 71.3368 160.511 71.3368C160.511 71.3368 156.286 48.341 140.329 30.9762ZM160.043 91.5199C154.879 91.5199 133.76 93.3976 119.681 110.761C105.131 129.066 105.6 143.615 102.315 146.9C105.131 147.839 134.699 150.654 147.371 131.413C159.572 113.576 160.043 94.3354 160.043 91.5199ZM31.4461 78.8455C34.7305 79.3163 45.9954 93.8656 66.1766 95.7423C88.2346 98.0907 95.7432 86.8268 96.214 86.8268C96.214 85.4181 78.3793 66.1766 58.668 66.1766C45.0556 66.6446 31.4461 78.8455 31.4461 78.8455ZM111.7 88.7035C111.231 89.1724 92.9286 113.578 49.7497 107.007C15.0192 101.375 2.3475 82.1318 0 81.6628C2.81644 77.9076 29.0995 56.7885 59.604 57.2574C89.6423 58.1972 111.699 75.0921 111.699 75.0921H130.941C115.455 70.3989 96.682 61.9515 88.2336 43.178C80.725 25.8141 82.1327 15.4881 78.8473 0.939744C78.8473 0.939744 113.577 -1.8767 140.329 15.4881C164.734 31.4451 178.344 73.6843 178.814 75.0921H193.831L190.548 0L209.32 0.468942C206.036 20.1812 210.26 160.979 209.32 160.979C207.443 161.447 191.486 162.384 190.079 158.631C190.079 158.631 193.833 89.6404 194.303 88.2318H179.752C179.752 89.1715 178.344 128.124 148.777 148.775C119.208 169.426 76.5008 163.324 76.5008 163.324C81.6647 155.345 76.5008 146.898 91.5181 123.901C108.884 97.619 131.881 88.2318 131.413 88.2318C130.005 88.7026 112.171 88.7035 111.7 88.7035Z" fill="#9CBE30"/>
</svg>
