<svg width="139" height="75" viewBox="0 0 139 75" fill="none" xmlns="http://www.w3.org/2000/svg">
<path d="M97.9346 0.712158C101.146 0.712158 104.357 0.615967 107.561 0.734356C111.845 0.889743 115.834 2.08844 119.097 4.97418C120.813 6.49105 122.064 8.38529 123.092 10.5163C125.098 14.6451 124.683 18.8702 123.906 23.0508C123.425 25.611 122.056 27.9492 120.458 30.1246C118.764 32.4258 116.559 34.0906 114.206 35.5261C112.792 36.3918 111.091 36.858 109.463 37.2872C104.32 38.6338 99.1036 38.1529 93.8945 37.7903C92.5922 37.7015 91.2677 38.0123 89.9506 38.0345C89.4623 38.0419 88.9739 37.7459 88.4856 37.5831C88.6632 37.0652 88.8333 36.5472 89.0257 36.0441C89.3513 35.2153 89.9728 34.394 89.9876 33.5653C90.143 25.4852 90.1948 17.4051 90.2688 9.31761C90.2836 8.07451 90.291 6.83882 90.291 5.59573C90.291 3.6349 89.4549 2.76178 87.5311 2.64339C87.1537 2.62119 86.7023 2.64339 86.4212 2.45101C86.1178 2.24382 85.8218 1.80726 85.807 1.45949C85.7922 1.23011 86.2288 0.874944 86.5321 0.741756C86.8651 0.601168 87.2869 0.623366 87.6642 0.623366C91.0827 0.615967 94.5086 0.615967 97.9271 0.615967C97.9345 0.645564 97.9346 0.675162 97.9346 0.712158ZM95.3004 19.1439C95.3226 19.1439 95.3522 19.1439 95.3744 19.1439C95.3744 23.8499 95.3522 28.5485 95.3818 33.2545C95.3892 34.9046 95.9959 35.4669 97.6164 35.6075C101.212 35.9035 104.779 35.8591 108.323 34.9786C110.809 34.357 112.963 33.2323 114.664 31.3455C117.099 28.6299 118.586 25.463 118.727 21.7781C118.867 18.1302 119.252 14.4898 117.587 10.9677C115.996 7.60835 113.599 5.25536 110.136 4.04187C105.778 2.5102 101.257 3.09475 96.7803 3.25754C95.8849 3.29453 95.3004 3.99747 95.3004 5.04078C95.3078 9.73937 95.3004 14.4454 95.3004 19.1439Z" fill="#131A36"/>
<path d="M42.8098 30.3688C42.8098 29.3847 42.869 28.4005 42.795 27.4164C42.6766 25.7294 42.2993 25.3668 40.59 25.204C39.9537 25.1374 39.3099 25.1596 38.6662 25.167C37.8301 25.1744 36.9643 25.019 36.9643 24.0423C36.9643 22.9916 37.9263 23.1544 38.6292 23.1766C41.0266 23.2358 43.4166 23.3542 45.8066 23.3986C46.6575 23.4134 47.5084 23.2062 48.3593 23.2358C48.8181 23.2506 49.595 23.4948 49.6468 23.7463C49.7356 24.1755 49.4988 24.908 49.1437 25.1448C47.9598 25.9514 47.6342 27.0687 47.686 28.3709C47.76 30.2874 47.8636 32.1964 47.9894 34.1128C48.056 35.0526 47.871 35.8887 46.9239 36.2217C45.1184 36.8654 43.313 37.5239 41.4557 37.9679C37.0457 39.0334 32.5395 39.3442 28.0851 38.4489C22.395 37.302 17.4448 34.7714 14.3519 29.54C12.2727 26.0253 11.8361 22.1259 12.0359 18.1598C12.2875 13.1579 14.1669 8.80706 18.0738 5.63273C20.0272 4.04927 22.3358 2.76918 24.6666 1.80727C29.5058 -0.190556 34.5522 -0.360742 39.7317 0.467986C42.0477 0.837954 44.3341 1.17832 46.5613 1.93306C47.5602 2.27343 48.0116 2.80618 47.8858 3.7903C47.6564 5.65493 47.4196 7.51957 47.0941 9.36941C47.0275 9.72458 46.5465 10.2721 46.2727 10.2647C45.925 10.2573 45.444 9.82817 45.2886 9.4656C45.1036 9.02904 45.1628 8.46669 45.1924 7.96353C45.2738 6.49846 44.9704 5.39595 43.4536 4.62642C37.5341 1.61489 31.548 1.39291 25.5545 4.14546C23.135 5.25537 21.3295 7.1718 19.9088 9.54699C17.0601 14.3196 17.0231 19.4547 18.3698 24.4419C19.8422 29.9174 23.4309 34.1202 29.0988 35.7185C31.5776 36.414 34.3524 36.1181 37.0013 36.1847C38.0151 36.2069 39.0436 35.9997 40.0573 35.8665C41.9145 35.6149 42.7728 34.653 42.8172 32.8106C42.8394 31.9966 42.8172 31.1827 42.8172 30.3762C42.8172 30.3688 42.8172 30.3688 42.8098 30.3688Z" fill="#131A36"/>
<path d="M67.3161 0.689972C71.2525 0.689972 75.189 0.689972 79.1254 0.689972C80.8569 0.689972 81.1233 1.03034 80.8495 2.74699C80.5905 4.38965 80.4351 6.0397 80.154 7.67496C80.08 8.11152 79.6952 8.49629 79.451 8.90325C79.0663 8.49629 78.4965 8.15592 78.3337 7.66756C78.1265 7.04602 78.2597 6.31348 78.2079 5.63274C78.1191 4.47844 77.5716 3.60532 76.3507 3.55352C72.5992 3.38334 68.8403 3.25015 65.0889 3.22055C64.1714 3.21315 63.6164 3.93089 63.6016 4.9742C63.5498 8.3483 63.5054 11.7224 63.3722 15.0965C63.2908 17.1535 63.7274 17.7085 65.8214 17.7159C68.0856 17.7233 70.3572 17.7233 72.6214 17.7011C74.2863 17.6863 74.8042 17.2497 75.189 15.6145C75.2926 15.1557 75.3074 14.6452 75.522 14.253C75.7217 13.8978 76.1435 13.6758 76.4691 13.3873C76.6837 13.7646 77.0462 14.1198 77.0906 14.5194C77.1646 15.1853 77.0092 15.8808 77.0092 16.5616C77.0092 18.7444 77.0388 20.9198 77.061 23.1026C77.061 23.3172 77.1276 23.5614 77.0536 23.739C76.8538 24.2051 76.5875 24.6491 76.3507 25.1004C76.0251 24.7453 75.5738 24.4345 75.3962 24.0127C75.1816 23.5244 75.2038 22.9324 75.1224 22.3849C74.9152 20.905 74.2567 20.1725 72.799 20.1355C70.1944 20.0615 67.5825 20.0615 64.9705 20.1207C63.6756 20.1503 63.1724 20.831 63.1724 22.1185C63.1798 25.833 63.1798 29.5548 63.165 33.2693C63.165 34.6826 63.8088 35.6149 65.1259 35.6075C69.0549 35.5705 72.9988 35.5483 76.913 35.2597C79.4584 35.0748 79.6878 34.5864 80.0948 32.115C80.2206 31.3233 80.4499 30.5242 80.7977 29.8064C80.9531 29.4735 81.6856 29.0591 81.841 29.1627C82.211 29.3995 82.6401 29.947 82.6105 30.3392C82.4478 32.4628 82.1888 34.5864 81.8928 36.6952C81.7596 37.6645 81.0271 37.9753 80.1022 37.9679C74.1605 37.9013 68.2114 37.8273 62.2697 37.8125C60.6937 37.8051 59.125 38.0271 57.5489 38.0641C57.105 38.0715 56.3206 37.8347 56.2836 37.6053C56.2097 37.1466 56.3798 36.377 56.7128 36.1625C57.9929 35.3559 58.1927 34.2164 58.2001 32.855C58.2519 24.0941 58.3555 15.3259 58.4295 6.56506C58.4517 3.7829 57.9929 3.22055 55.3365 2.58421C54.974 2.49541 54.604 2.32523 54.3228 2.08845C53.6273 1.5039 53.7457 0.978547 54.604 0.726969C54.8852 0.645576 55.1959 0.638176 55.4919 0.638176C59.4284 0.630777 63.3648 0.638176 67.2939 0.638176C67.3161 0.645576 67.3161 0.667774 67.3161 0.689972Z" fill="#131A36"/>
<path d="M43.9117 65.168C43.9117 66.8328 43.9265 68.5051 43.9043 70.1699C43.8895 71.4722 44.2965 72.3675 45.7246 72.7005C46.1611 72.8041 46.4645 73.4552 46.8271 73.8548C46.3609 74.0546 45.9021 74.4319 45.436 74.4245C44.2077 74.4171 42.9794 74.2544 41.7511 74.136C40.6338 74.0324 40.2786 73.4626 40.3082 72.3083C40.397 68.6383 40.5302 64.9682 40.4414 61.2981C40.3748 58.7675 38.6952 57.1841 36.5568 57.2063C33.5674 57.2432 31.4364 58.8563 31.3698 61.4313C31.281 64.5908 31.429 67.7577 31.4956 70.9247C31.5178 71.8866 32.0284 72.4415 32.9977 72.7449C33.449 72.8855 33.7672 73.4848 34.1446 73.8696C33.6562 74.0398 33.1753 74.3432 32.6795 74.358C30.6447 74.4319 28.6025 74.4615 26.5676 74.4097C26.0497 74.3949 25.5391 74.0398 25.0212 73.8474C25.4355 73.4478 25.7833 72.8337 26.2717 72.6931C27.1892 72.4341 27.7737 71.9606 27.7885 71.0504C27.8625 67.7281 28.0771 64.3836 27.8329 61.0835C27.6479 58.6195 26.2865 57.4356 24.3996 57.2063C22.239 56.9473 19.7306 58.2718 18.8797 60.1808C18.6799 60.6321 18.5911 61.1723 18.5985 61.6755C18.6207 64.4502 18.7021 67.225 18.7391 70.0071C18.7539 71.376 19.1017 72.4119 20.6777 72.7227C21.0773 72.8041 21.3733 73.4404 21.7137 73.8178C21.2845 74.025 20.8479 74.4097 20.4262 74.4023C19.3681 74.3801 18.31 74.0842 17.2445 74.0768C16.1419 74.0694 15.0394 74.3432 13.9369 74.358C13.4486 74.3654 12.9528 74.025 12.4645 73.8474C12.8048 73.4626 13.0934 72.8337 13.5004 72.7375C14.958 72.3971 15.3946 71.4648 15.4094 70.1181C15.4464 66.5664 15.5426 63.0221 15.5574 59.4705C15.5648 58.294 14.7805 57.7982 13.6928 57.5392C13.16 57.4134 12.7012 56.9547 12.2129 56.6513C12.7456 56.3183 13.2488 55.867 13.8259 55.6894C14.9063 55.3564 16.0532 55.2232 17.1483 54.9272C18.0066 54.7053 18.4209 55.053 18.7021 55.8078C19.2053 57.1545 19.6862 57.2506 20.8109 56.3035C24.0593 53.551 26.982 53.6842 29.7938 56.7253C30.7409 57.7464 31.7768 57.7464 32.7535 56.7105C35.2915 54.0171 38.9837 53.736 41.8547 56.0816C43.12 57.1175 43.9191 58.4567 43.8969 60.1734C43.8969 61.8308 43.9117 63.5031 43.9117 65.168Z" fill="#131A36"/>
<path d="M118.809 66.7959C118.809 64.8276 118.875 62.8594 118.794 60.8986C118.69 58.6344 116.715 57.0657 114.443 57.1841C112.482 57.2877 110.862 58.0498 109.663 59.5519C109.16 60.1734 108.731 61.054 108.716 61.8309C108.635 64.7314 108.724 67.6394 108.768 70.5399C108.783 71.635 109.242 72.3602 110.381 72.7079C110.855 72.8559 111.195 73.4257 111.595 73.803C111.04 74.0102 110.425 74.4838 109.944 74.3728C107.887 73.8992 105.875 74.0102 103.825 74.3506C103.411 74.4172 102.93 74.0694 102.479 73.914C102.804 73.5219 103.07 72.8707 103.463 72.7819C104.957 72.4416 105.32 71.4574 105.32 70.133C105.327 63.1628 105.342 56.2 105.349 49.2298C105.349 48.0237 104.928 47.084 103.685 46.6178C103.374 46.4994 102.974 45.9741 103.026 45.7151C103.085 45.4043 103.537 45.0122 103.892 44.9308C105.09 44.6422 106.311 44.4054 107.54 44.2796C108.405 44.1908 108.901 44.7162 108.879 45.6115C108.805 48.9412 108.694 52.2709 108.664 55.6006C108.657 56.2074 109.005 56.8215 109.19 57.4283C109.841 57.1397 110.699 57.0287 111.114 56.5403C113.4 53.8322 116.485 53.9728 119.253 55.4156C121.613 56.6439 122.509 58.7232 122.501 61.3499C122.494 64.5095 122.642 67.669 122.738 70.8359C122.768 71.9088 123.012 72.7671 124.403 72.7819C124.728 72.7819 125.054 73.4035 125.38 73.7364C125.002 73.988 124.625 74.4542 124.24 74.4616C122.856 74.4764 121.465 74.3654 120.089 74.2322C118.972 74.1212 118.639 73.3665 118.705 72.3158C118.824 70.4807 118.89 68.6457 118.972 66.8107C118.912 66.7959 118.861 66.7959 118.809 66.7959Z" fill="#131A36"/>
<path d="M65.3473 65.1013C65.3473 66.8919 65.3991 68.69 65.3325 70.4806C65.2881 71.6275 65.6803 72.3748 66.7828 72.73C66.9826 72.7966 67.2341 72.8484 67.3599 72.9964C67.5893 73.2628 67.8631 73.5883 67.8853 73.8991C67.8927 74.0619 67.3895 74.417 67.1305 74.4023C65.7765 74.3209 64.4076 74.2247 63.0831 73.9435C62.6983 73.8621 62.4394 73.1592 62.1434 72.7226C61.877 72.3378 61.6772 71.6571 61.3664 71.5979C60.9299 71.5165 60.2122 71.7533 59.9458 72.1011C58.3697 74.1729 56.2905 74.713 53.8339 74.4097C51.9989 74.1803 50.112 72.2712 49.9788 70.4214C49.7273 66.8179 50.8668 65.1235 54.2261 63.7102C56.0093 62.9629 57.7778 62.5707 59.709 62.8223C61.1001 62.9999 62.2544 61.4312 61.9436 59.9661C61.3516 57.184 57.8148 56.333 55.8613 56.9398C54.707 57.295 53.6637 57.8129 53.1458 59.0856C53.0126 59.4112 52.2578 59.4778 51.7843 59.6627C51.6141 59.2262 51.2145 58.7156 51.3255 58.3679C51.5179 57.7537 51.9101 57.0878 52.4132 56.7178C54.2187 55.3785 56.2091 54.4684 58.5325 54.4314C61.2851 54.3796 63.3865 55.5931 64.9181 57.7907C65.2807 58.3087 65.4213 59.0634 65.4509 59.7145C65.5175 61.5052 65.4731 63.3032 65.4731 65.1013C65.4213 65.1013 65.3843 65.1013 65.3473 65.1013ZM62.2248 66.4258C62.173 65.9152 62.1804 65.3972 62.062 64.9015C61.7142 63.4068 60.6783 63.096 59.4204 63.9396C58.8137 64.3465 58.0293 64.4871 57.3412 64.7683C56.4311 65.1457 55.3804 65.3824 54.6552 65.9966C53.5231 66.9585 53.168 68.2682 53.6267 69.8147C54.0411 71.2279 54.9808 71.8865 56.3053 71.9605C56.9786 71.9975 57.6668 71.5979 58.3549 71.4499C61.1667 70.8654 62.4394 68.4828 62.2248 66.4258Z" fill="#131A36"/>
<path d="M0.899683 29.3181C0.899683 21.0604 0.899683 12.8027 0.907082 4.54502C0.907082 3.86428 0.899683 3.16134 1.04767 2.5028C1.28445 1.42989 1.95039 0.79355 3.13429 0.808349C4.32558 0.830547 5.51688 0.80095 6.70817 0.808349C7.5443 0.815748 8.15845 1.14872 8.15105 2.07364C8.14365 3.02815 7.40371 3.12435 6.69338 3.10215C6.05703 3.08735 5.42069 2.92456 4.77694 2.91716C3.42286 2.89497 2.92711 3.42032 2.92711 4.7818C2.9493 16.8871 2.9789 28.9925 2.9863 41.0978C2.9863 45.3746 2.9419 49.6515 2.91971 53.9283C2.91231 55.4008 3.34147 55.8077 4.85834 55.7781C5.67227 55.7633 6.50839 55.645 7.27793 55.8077C7.69229 55.8965 7.99566 56.4959 8.34343 56.8658C7.97346 57.1618 7.6109 57.6872 7.21873 57.7094C5.68706 57.7908 4.1332 57.7982 2.60893 57.665C1.40284 57.5688 0.892284 56.6735 0.884884 55.497C0.877485 53.5287 0.892284 51.5605 0.892284 49.5923C0.892284 42.8293 0.892284 36.0737 0.892284 29.3107C0.899683 29.3181 0.899683 29.3181 0.899683 29.3181Z" fill="#131A36"/>
<path d="M138.882 45.9814C138.882 54.0245 138.882 62.0676 138.882 70.1107C138.882 70.4954 138.882 70.8802 138.86 71.265C138.771 73.2554 138.06 73.9287 136.063 73.9435C134.997 73.9509 133.909 74.0619 132.866 73.8991C132.363 73.8251 131.941 73.2406 131.482 72.8854C131.919 72.4933 132.296 71.9161 132.807 71.7681C133.377 71.5979 134.065 71.8125 134.709 71.8347C136.225 71.8939 136.817 71.3168 136.817 69.7999C136.803 55.0456 136.788 40.2839 136.773 25.5296C136.773 24.3309 136.81 23.1396 136.84 21.9409C136.877 20.4314 136.388 19.9357 134.857 19.9579C134.087 19.9727 133.295 20.128 132.563 19.9801C132.156 19.8987 131.564 19.3215 131.571 18.9737C131.579 18.5964 132.163 17.9378 132.526 17.9156C134.094 17.8195 135.7 17.7603 137.254 17.9674C138.512 18.1376 138.83 19.2919 138.837 20.4314C138.86 23.6797 138.86 26.9355 138.86 30.1838C138.86 35.4447 138.86 40.7056 138.86 45.9666C138.867 45.9814 138.874 45.9814 138.882 45.9814Z" fill="#131A36"/>
<path d="M71.0684 57.8278C71.4309 57.3395 71.6381 56.8215 72.0155 56.5847C73.4362 55.7116 73.7543 54.5129 73.451 52.9516C73.192 51.6272 73.1402 50.2731 74.4277 49.3408C74.768 49.0966 75.1528 48.8894 75.5524 48.7562C76.5365 48.4158 77.0618 48.8376 77.0396 49.8439C77.01 51.1684 76.9212 52.4929 76.8251 53.81C76.7067 55.4378 77.2024 56.0002 78.8525 55.978C79.622 55.9632 80.3915 55.8152 81.1537 55.8818C81.5828 55.9188 82.2266 56.2148 82.3228 56.5255C82.4264 56.8733 82.1156 57.665 81.8196 57.7612C81.0427 58.0128 80.1622 58.1312 79.3482 58.0424C77.3726 57.8352 76.7955 58.2422 76.7807 60.166C76.7585 63.1553 76.7437 66.1521 76.7437 69.1414C76.7437 71.1984 77.6094 71.931 79.6442 71.6054C79.9772 71.5536 80.325 71.3834 80.6431 71.4352C80.9835 71.4944 81.4053 71.672 81.568 71.9384C81.6864 72.1308 81.531 72.6265 81.3387 72.8485C79.9624 74.4616 78.1125 74.6909 76.1961 74.321C74.5979 74.0102 73.7691 72.7597 73.3918 71.302C73.1624 70.4141 73.1698 69.4448 73.1846 68.5125C73.229 65.7377 73.3252 62.9556 73.4066 60.1808C73.4362 59.2485 73.0366 58.6343 72.1413 58.331C71.8305 58.2422 71.5419 58.0646 71.0684 57.8278Z" fill="#131A36"/>
<path d="M94.0355 74.4763C91.1867 74.9055 88.8263 73.8548 87.0431 71.7681C84.8233 69.1784 84.1129 66.1002 84.7789 62.7039C85.5188 58.9081 88.1382 56.9916 91.3421 55.275C93.4435 54.1429 95.4118 54.2465 97.5206 54.4685C100.31 54.757 101.59 57.2654 100.214 59.7368C100.088 59.9588 99.7256 60.2621 99.5628 60.2104C99.2446 60.1142 98.9042 59.8552 98.7267 59.5666C98.3049 58.8637 98.1347 57.6724 97.5724 57.4652C96.1295 56.9398 94.4646 56.4367 92.9996 56.6661C90.6614 57.0286 88.5896 58.7823 88.3898 61.5718C88.1604 64.8128 88.4786 67.9057 90.7502 70.4437C92.5482 72.4489 95.9001 72.989 98.3049 71.7755C98.4973 71.6793 98.7045 71.524 98.8894 71.5388C99.3334 71.5758 99.7626 71.6941 100.207 71.7755C100.066 72.1825 100.051 72.8041 99.77 72.9668C98.7637 73.5514 97.6981 74.1063 96.5882 74.4245C95.7965 74.6539 94.8938 74.4763 94.0355 74.4763Z" fill="#131A36"/>
</svg>
