<svg width="1006" height="283" viewBox="0 0 1006 283" fill="none" xmlns="http://www.w3.org/2000/svg">
<mask id="mask0_1_3" style="mask-type:luminance" maskUnits="userSpaceOnUse" x="0" y="1" width="323" height="281">
<path d="M322.979 1.66016H0V281.341H322.979V1.66016Z" fill="white"/>
</mask>
<g mask="url(#mask0_1_3)">
<path d="M250.441 16.3175C250.441 16.3175 258.236 13.3789 268.103 18.8965C277.971 24.4139 279.799 27.9928 279.799 27.9928L273.303 28.0805C273.303 28.0805 261.911 28.2823 254.064 22.2034C250.346 18.7561 249.753 18.0894 249.753 18.0894" fill="#007E42"/>
<path d="M250.441 16.3175C250.441 16.3175 258.236 13.3789 268.103 18.8965C277.971 24.4139 279.799 27.9928 279.799 27.9928L273.303 28.0805C273.303 28.0805 261.911 28.2823 254.064 22.2034C250.346 18.7561 249.753 18.0894 249.753 18.0894" stroke="#007E42" stroke-miterlimit="10"/>
<path d="M267.223 62.4929C267.223 62.4929 268.974 54.2913 262.111 45.2651C255.248 36.2389 251.468 34.9407 251.468 34.9407L252.331 41.4318C252.331 41.4318 253.793 52.8176 260.917 59.7474C264.846 62.9491 265.586 63.449 265.586 63.449" fill="#007E42"/>
<path d="M267.223 62.4929C267.223 62.4929 268.974 54.2913 262.111 45.2651C255.248 36.2389 251.468 34.9407 251.468 34.9407L252.331 41.4318C252.331 41.4318 253.793 52.8176 260.917 59.7474C264.846 62.9491 265.586 63.449 265.586 63.449" stroke="#007E42" stroke-miterlimit="10"/>
<path d="M236.558 33.4404C236.558 33.4404 239.719 20.5546 228.519 11.2301C217.302 1.90571 211.022 2.09869 211.022 2.09869L212.268 11.0547C212.268 11.0547 214.384 26.7913 226.09 32.9316C232.56 35.414 233.78 35.7299 233.78 35.7299" fill="#007E42"/>
<path d="M236.558 33.4404C236.558 33.4404 239.719 20.5546 228.519 11.2301C217.302 1.90571 211.022 2.09869 211.022 2.09869L212.268 11.0547C212.268 11.0547 214.384 26.7913 226.09 32.9316C232.56 35.414 233.78 35.7299 233.78 35.7299" stroke="#007E42" stroke-miterlimit="10"/>
<path d="M253.36 69.642C253.36 69.642 264.15 64.6947 275.517 72.8788C286.882 81.0625 288.363 86.5713 288.363 86.5713L279.949 87.0014C279.949 87.0014 265.196 87.8351 256.574 78.677C252.628 73.4577 252.019 72.4489 252.019 72.4489" fill="#007E42"/>
<path d="M253.36 69.642C253.36 69.642 264.15 64.6947 275.517 72.8788C286.882 81.0625 288.363 86.5713 288.363 86.5713L279.949 87.0014C279.949 87.0014 265.196 87.8351 256.574 78.677C252.628 73.4577 252.019 72.4489 252.019 72.4489" stroke="#007E42" stroke-miterlimit="10"/>
<path d="M283.744 51.1685C283.744 51.1685 292.792 41.3002 306.1 46.0808C319.407 50.8615 322.378 56.5106 322.378 56.5106L314.356 60.3263C314.356 60.3263 300.317 67.0981 289.396 60.1333C284.11 55.7825 283.239 54.879 283.239 54.879" fill="#007E42"/>
<path d="M283.744 51.1685C283.744 51.1685 292.792 41.3002 306.1 46.0808C319.407 50.8615 322.378 56.5106 322.378 56.5106L314.356 60.3263C314.356 60.3263 300.317 67.0981 289.396 60.1333C284.11 55.7825 283.239 54.879 283.239 54.879" stroke="#007E42" stroke-miterlimit="10"/>
<path d="M208.943 112.658C208.943 112.658 212.305 120.106 220.901 119.904C229.496 119.703 232.292 117.009 232.292 117.009L228.381 113.264C228.381 113.264 221.545 106.641 213.907 108.571C210.023 110.071 209.352 110.422 209.352 110.422" fill="#007E42"/>
<path d="M208.943 112.658C208.943 112.658 212.305 120.106 220.901 119.904C229.496 119.703 232.292 117.009 232.292 117.009L228.381 113.264C228.381 113.264 221.545 106.641 213.907 108.571C210.023 110.071 209.352 110.422 209.352 110.422" stroke="#007E42" stroke-miterlimit="10"/>
<path d="M228.223 98.7201C228.223 98.7201 233.841 107.246 244.422 105.282C255.004 103.317 257.921 99.4219 257.921 99.4219L252.347 95.5707C252.347 95.5707 242.602 88.7641 233.545 92.6679C229.042 95.299 228.284 95.869 228.284 95.869" fill="#007E42"/>
<path d="M228.223 98.7201C228.223 98.7201 233.841 107.246 244.422 105.282C255.004 103.317 257.921 99.4219 257.921 99.4219L252.347 95.5707C252.347 95.5707 242.602 88.7641 233.545 92.6679C229.042 95.299 228.284 95.869 228.284 95.869" stroke="#007E42" stroke-miterlimit="10"/>
<path d="M185.81 104.115C185.81 104.115 189.607 92.3865 179.853 83.7817C170.089 75.1766 164.255 75.3082 164.255 75.3082L164.812 83.4923C164.812 83.4923 165.709 97.8695 176.151 103.571C181.986 105.895 183.093 106.185 183.093 106.185" fill="#007E42"/>
<path d="M185.81 104.115C185.81 104.115 189.607 92.3865 179.853 83.7817C170.089 75.1766 164.255 75.3082 164.255 75.3082L164.812 83.4923C164.812 83.4923 165.709 97.8695 176.151 103.571C181.986 105.895 183.093 106.185 183.093 106.185" stroke="#007E42" stroke-miterlimit="10"/>
<path d="M212.225 80.3873C212.225 80.3873 219.706 69.2647 212.068 57.3087C204.431 45.3439 198.282 43.7124 198.282 43.7124L196.417 52.4404C196.417 52.4404 193.064 67.7559 202.279 76.8786C207.687 81.0714 208.759 81.7207 208.759 81.7207" fill="#007E42"/>
<path d="M212.225 80.3873C212.225 80.3873 219.706 69.2647 212.068 57.3087C204.431 45.3439 198.282 43.7124 198.282 43.7124L196.417 52.4404C196.417 52.4404 193.064 67.7559 202.279 76.8786C207.687 81.0714 208.759 81.7207 208.759 81.7207" stroke="#007E42" stroke-miterlimit="10"/>
<path d="M259.579 9.97583C258.577 10.0636 243.222 16.9582 238.493 23.6336C236.944 25.8266 235.184 27.9756 233.991 30.3966C232.798 32.8176 232.162 35.6334 231.43 38.2913C230.42 41.9492 229.628 45.6596 228.992 49.4052C227.825 56.2735 227.172 63.2208 226.85 70.1769C225.186 77.2645 228.261 106.378 178.183 121.702C183.765 119.992 189.87 119.676 195.54 117.948C208.804 113.895 222.452 107.659 229.305 94.8171C235.576 83.0629 236.996 68.6945 237.945 55.6332C238.006 54.7911 238.067 53.949 238.119 53.0982C239.87 43.4492 242.9 23.2564 259.57 9.98464L259.579 9.97583Z" fill="#007E42" stroke="#007E42" stroke-miterlimit="10"/>
<path d="M292.202 27.151C286.523 54.4401 271.561 58.0804 262.782 60.94C255.04 63.3523 247.306 65.7996 239.633 68.4312C226.421 72.9662 212.904 78.0187 201.034 85.5275C186.925 94.4484 175.49 107.22 167.303 121.781C154.814 143.991 149.85 170.763 148.727 196.087C148.649 197.79 148.518 199.482 148.301 201.175C146.785 213.193 141.054 223.868 130.255 229.701C120.474 234.99 108.908 236.561 98.0744 237.552C92.814 238.035 87.4757 239.078 82.3897 240.49C74.3857 242.719 65.5285 245.025 58.9967 250.482L58.2128 250.157L57.5335 251.797C57.2461 252.078 56.9499 252.358 56.6713 252.657C50.9406 258.762 48.7372 267.289 45.8806 275.174C49.6865 267.139 53.684 259.754 60.0679 254.727L83.1296 264.358C82.9033 264.578 82.6859 264.789 82.4676 265.017C78.3658 269.393 76.7894 275.49 74.7341 281.148C78.627 272.937 82.7816 265.657 91.8039 262.911C98.4403 260.894 105.878 260.797 112.715 260.051C146.907 258.938 152.638 241.622 154.832 234.359C157.402 225.447 158.142 213.745 159.048 205.43C158.986 205.403 158.934 205.368 158.873 205.342C162.192 190.85 162.828 172.912 164.456 162.816C166.363 150.605 170.988 138.974 177.293 128.412C183.851 117.43 192.169 107.554 201.443 98.7994C213.262 87.65 228.146 82.0716 242.856 75.7907C253.167 71.3872 263.583 67.2207 273.878 62.747C295.555 48.9753 292.202 27.1422 292.202 27.1422V27.151ZM86.2912 261.885L63.5428 252.385C65.4066 251.315 67.4532 250.411 69.7263 249.718C78.9929 246.903 89.3741 246.762 98.9198 245.727C99.2159 245.718 99.5031 245.701 99.7992 245.692L111.104 254.323C107.672 254.701 104.206 255.385 100.888 256.315C95.9935 257.675 90.6543 259.078 86.2823 261.894L86.2912 261.885ZM116.172 253.789L105.163 245.385C114.604 244.631 122.304 242.92 128.6 240.613L135.742 248.253C135.55 248.367 135.367 248.481 135.176 248.586C129.376 251.718 122.695 253.026 116.172 253.789ZM138.668 246.254L132.084 239.209C139.286 236.061 144.416 232.078 148.117 227.973C148.117 228.025 148.108 228.087 148.1 228.139C147.194 235.341 144.164 241.859 138.668 246.245V246.254Z" fill="#007E42" stroke="#007E42" stroke-width="0.72" stroke-miterlimit="10"/>
<path d="M72.5415 16.3175C72.5415 16.3175 64.7468 13.3789 54.8794 18.8965C45.0119 24.4139 43.1829 27.9928 43.1829 27.9928L49.68 28.0805C49.68 28.0805 61.0716 28.2823 68.9185 22.2034C72.6373 18.7561 73.2295 18.0894 73.2295 18.0894" fill="#1B2B89"/>
<path d="M72.5415 16.3175C72.5415 16.3175 64.7468 13.3789 54.8794 18.8965C45.0119 24.4139 43.1829 27.9928 43.1829 27.9928L49.68 28.0805C49.68 28.0805 61.0716 28.2823 68.9185 22.2034C72.6373 18.7561 73.2295 18.0894 73.2295 18.0894" stroke="#1B2B89" stroke-miterlimit="10"/>
<path d="M55.7581 62.4929C55.7581 62.4929 54.0076 54.2913 60.8704 45.2651C67.7332 36.2389 71.513 34.9407 71.513 34.9407L70.6507 41.4318C70.6507 41.4318 69.1876 52.8176 62.0635 59.7474C58.1357 62.9491 57.3955 63.449 57.3955 63.449" fill="#1B2B89"/>
<path d="M55.7581 62.4929C55.7581 62.4929 54.0076 54.2913 60.8704 45.2651C67.7332 36.2389 71.513 34.9407 71.513 34.9407L70.6507 41.4318C70.6507 41.4318 69.1876 52.8176 62.0635 59.7474C58.1357 62.9491 57.3955 63.449 57.3955 63.449" stroke="#1B2B89" stroke-miterlimit="10"/>
<path d="M86.4211 33.4404C86.4211 33.4404 83.2595 20.5546 94.4593 11.2301C105.668 1.90571 111.956 2.09869 111.956 2.09869L110.711 11.0547C110.711 11.0547 108.594 26.7913 96.8892 32.9316C90.4183 35.414 89.1989 35.7299 89.1989 35.7299" fill="#1B2B89"/>
<path d="M86.4211 33.4404C86.4211 33.4404 83.2595 20.5546 94.4593 11.2301C105.668 1.90571 111.956 2.09869 111.956 2.09869L110.711 11.0547C110.711 11.0547 108.594 26.7913 96.8892 32.9316C90.4183 35.414 89.1989 35.7299 89.1989 35.7299" stroke="#1B2B89" stroke-miterlimit="10"/>
<path d="M69.6205 69.642C69.6205 69.642 58.8299 64.6947 47.4644 72.8788C36.099 81.0625 34.6185 86.5713 34.6185 86.5713L43.0316 87.0014C43.0316 87.0014 57.7848 87.8351 66.4069 78.677C70.3522 73.4577 70.9618 72.4489 70.9618 72.4489" fill="#1B2B89"/>
<path d="M69.6205 69.642C69.6205 69.642 58.8299 64.6947 47.4644 72.8788C36.099 81.0625 34.6185 86.5713 34.6185 86.5713L43.0316 87.0014C43.0316 87.0014 57.7848 87.8351 66.4069 78.677C70.3522 73.4577 70.9618 72.4489 70.9618 72.4489" stroke="#1B2B89" stroke-miterlimit="10"/>
<path d="M39.2272 51.1685C39.2272 51.1685 30.1784 41.3002 16.8708 46.0808C3.58064 50.8528 0.602112 56.5106 0.602112 56.5106L8.62327 60.3263C8.62327 60.3263 22.6624 67.0981 33.5837 60.1333C38.8701 55.7825 39.741 54.879 39.741 54.879" fill="#1B2B89"/>
<path d="M39.2272 51.1685C39.2272 51.1685 30.1784 41.3002 16.8708 46.0808C3.58064 50.8528 0.602112 56.5106 0.602112 56.5106L8.62327 60.3263C8.62327 60.3263 22.6624 67.0981 33.5837 60.1333C38.8701 55.7825 39.741 54.879 39.741 54.879" stroke="#1B2B89" stroke-miterlimit="10"/>
<path d="M114.037 112.658C114.037 112.658 110.675 120.106 102.08 119.904C93.4833 119.703 90.6876 117.009 90.6876 117.009L94.598 113.264C94.598 113.264 101.435 106.641 109.073 108.571C112.957 110.071 113.628 110.422 113.628 110.422" fill="#1B2B89"/>
<path d="M114.037 112.658C114.037 112.658 110.675 120.106 102.08 119.904C93.4833 119.703 90.6876 117.009 90.6876 117.009L94.598 113.264C94.598 113.264 101.435 106.641 109.073 108.571C112.957 110.071 113.628 110.422 113.628 110.422" stroke="#1B2B89" stroke-miterlimit="10"/>
<path d="M94.9664 97.905C94.9664 97.905 89.8107 106.729 79.1422 105.335C68.4735 103.948 65.3469 100.221 65.3469 100.221L70.7031 96.0712C70.7031 96.0712 80.0741 88.7383 89.3231 92.1415C93.9563 94.5187 94.749 95.054 94.749 95.054" fill="#1B2B89"/>
<path d="M94.9664 97.905C94.9664 97.905 89.8107 106.729 79.1422 105.335C68.4735 103.948 65.3469 100.221 65.3469 100.221L70.7031 96.0712C70.7031 96.0712 80.0741 88.7383 89.3231 92.1415C93.9563 94.5187 94.749 95.054 94.749 95.054" stroke="#1B2B89" stroke-miterlimit="10"/>
<path d="M137.162 104.115C137.162 104.115 133.364 92.3865 143.119 83.7817C152.881 75.1766 158.717 75.3082 158.717 75.3082L158.159 83.4923C158.159 83.4923 157.262 97.8695 146.82 103.571C140.984 105.895 139.879 106.185 139.879 106.185" fill="#1B2B89"/>
<path d="M137.162 104.115C137.162 104.115 133.364 92.3865 143.119 83.7817C152.881 75.1766 158.717 75.3082 158.717 75.3082L158.159 83.4923C158.159 83.4923 157.262 97.8695 146.82 103.571C140.984 105.895 139.879 106.185 139.879 106.185" stroke="#1B2B89" stroke-miterlimit="10"/>
<path d="M110.748 80.3873C110.748 80.3873 103.266 69.2647 110.904 57.3087C118.542 45.3439 124.69 43.7124 124.69 43.7124L126.554 52.4404C126.554 52.4404 129.907 67.7559 120.693 76.8786C115.284 81.0714 114.213 81.7207 114.213 81.7207" fill="#1B2B89"/>
<path d="M110.748 80.3873C110.748 80.3873 103.266 69.2647 110.904 57.3087C118.542 45.3439 124.69 43.7124 124.69 43.7124L126.554 52.4404C126.554 52.4404 129.907 67.7559 120.693 76.8786C115.284 81.0714 114.213 81.7207 114.213 81.7207" stroke="#1B2B89" stroke-miterlimit="10"/>
<path d="M63.4019 9.97583C64.4034 10.0636 79.7576 16.9582 84.487 23.6336C86.0373 25.8266 87.7962 27.9756 88.9896 30.3966C90.1822 32.8176 90.8183 35.6334 91.5501 38.2913C92.5601 41.9492 93.3528 45.6596 93.9888 49.4052C95.1554 56.2735 95.8085 63.2208 96.1306 70.1769C97.7946 77.2645 94.7198 106.378 144.797 121.702C139.215 119.992 133.11 119.676 127.44 117.948C114.176 113.895 100.529 107.659 93.6748 94.8171C87.4044 83.0629 85.9846 68.6945 85.0354 55.6332C84.9746 54.7911 84.9137 53.949 84.861 53.0982C83.111 43.4492 80.0799 23.2564 63.4105 9.98464L63.4019 9.97583Z" fill="#1B2B89" stroke="#1B2B89" stroke-miterlimit="10"/>
<path d="M277.093 275.183C274.227 267.289 272.025 258.771 266.303 252.666C266.024 252.367 265.728 252.087 265.44 251.806L264.769 250.166L263.986 250.491C257.454 245.025 248.597 242.727 240.593 240.499C235.498 239.078 230.168 238.035 224.908 237.561C214.082 236.569 202.517 234.99 192.728 229.71C181.929 223.876 176.198 213.202 174.682 201.184C174.473 199.5 174.334 197.798 174.255 196.096C173.141 170.772 168.176 144.001 155.679 121.79C147.493 107.238 136.057 94.4662 121.948 85.5363C110.078 78.0278 96.5614 72.9752 83.3495 68.4401C75.6766 65.8086 67.9429 63.3524 60.2004 60.949C51.4303 58.0894 36.4593 54.4491 30.7809 27.16C30.7809 27.16 27.4279 48.993 49.105 62.7648C59.3905 67.2384 69.8066 71.3963 80.1269 75.8085C94.8366 82.0975 109.721 87.6677 121.539 98.8171C130.814 107.563 139.131 117.448 145.689 128.43C151.995 138.992 156.62 150.623 158.527 162.833C160.155 172.93 160.791 190.877 164.109 205.359C164.049 205.386 163.996 205.421 163.935 205.447C164.841 213.763 165.572 225.464 168.15 234.377C170.345 241.64 176.076 258.947 210.268 260.069C217.105 260.806 224.542 260.911 231.179 262.929C240.201 265.666 244.356 272.955 248.248 281.165C246.201 275.517 244.617 269.411 240.515 265.034C240.297 264.806 240.079 264.595 239.853 264.376L262.915 254.744C269.298 259.771 273.296 267.157 277.102 275.192L277.093 275.183ZM174.883 228.149C174.883 228.096 174.874 228.035 174.866 227.982C178.567 232.087 183.688 236.07 190.899 239.218L184.315 246.263C178.819 241.877 175.788 235.35 174.883 228.157V228.149ZM187.241 248.245L194.383 240.605C200.679 242.912 208.378 244.622 217.818 245.376L206.81 253.78C200.287 253.017 193.607 251.71 187.807 248.569C187.615 248.464 187.432 248.35 187.241 248.236V248.245ZM222.086 256.306C218.768 255.385 215.311 254.701 211.87 254.315L223.175 245.684C223.471 245.692 223.758 245.709 224.054 245.718C233.6 246.753 243.981 246.894 253.248 249.709C255.521 250.402 257.568 251.306 259.431 252.376L236.683 261.876C232.311 259.061 226.972 257.666 222.078 256.298L222.086 256.306Z" fill="#1B2B89" stroke="#1B2B89" stroke-miterlimit="10"/>
</g>
<mask id="mask1_1_3" style="mask-type:luminance" maskUnits="userSpaceOnUse" x="296" y="117" width="710" height="86">
<path d="M1006 117.754H296.505V202.186H1006V117.754Z" fill="white"/>
</mask>
<g mask="url(#mask1_1_3)">
<path d="M296.505 200.966V121.245H327.79C337.346 121.245 345.402 122.838 351.994 125.991C358.585 129.143 363.538 133.718 366.887 139.684C370.304 145.548 372.013 152.7 372.013 161.038C372.013 169.376 370.304 176.46 366.887 182.391C363.538 188.357 358.585 192.932 351.994 196.187C345.402 199.339 337.346 200.932 327.79 200.932H296.505V200.966ZM314.641 186.493H326.743C335.881 186.493 342.682 184.425 347.111 180.29C351.61 176.054 353.843 169.647 353.843 161.071C353.843 152.497 351.575 145.988 347.111 141.853C342.682 137.718 335.916 135.651 326.743 135.651H314.641V186.527V186.493ZM386.242 200.966V121.245H399.74L444.312 176.29H441.173V121.245H458.054V200.932H444.556L400.123 145.887H403.158V200.932H386.277L386.242 200.966ZM464.959 200.966L502.661 121.245H517.658L555.812 200.932H537.433L527.528 178.765L534.643 183.612H485.885L493.105 178.765L483.2 200.932H464.924L464.959 200.966ZM510.09 139.82L495.092 174.426L491.953 170.122H528.609L525.924 174.426L510.577 139.82H510.125H510.09Z" fill="#1B2B89"/>
<path d="M603.49 202.186C594.108 202.186 586.19 200.525 579.773 197.203C573.426 193.814 568.613 189.069 565.335 182.968C562.091 176.799 560.451 169.579 560.451 161.377C560.451 153.174 562.196 145.616 565.683 139.447C569.241 133.278 574.367 128.465 581.029 125.075C587.69 121.686 595.677 119.991 604.989 119.991C610.953 119.991 616.185 120.737 620.684 122.262C625.252 123.686 629.263 125.753 632.681 128.465L626.857 142.158C624.38 140.429 622.044 139.074 619.882 138.091C617.719 137.04 615.452 136.328 613.15 135.956C610.814 135.515 608.163 135.278 605.128 135.278C596.584 135.278 590.167 137.549 585.807 142.056C581.552 146.497 579.424 152.971 579.424 161.512C579.424 170.054 581.448 176.358 585.459 180.73C589.504 185.103 595.816 187.272 604.432 187.272C607.291 187.272 610.256 187.002 613.29 186.493C616.324 185.95 619.289 185.171 622.253 184.12L619.01 190.899V169.409H600.979V156.869H634.006V195.983C629.891 197.949 625.113 199.475 619.707 200.627C614.337 201.678 608.965 202.22 603.524 202.22L603.49 202.186ZM678.056 202.186C667.837 202.186 659.815 199.509 654.095 194.153C648.341 188.797 645.481 181.545 645.481 172.324C645.481 166.36 646.701 161.173 649.074 156.733C651.55 152.293 654.968 148.835 659.327 146.327C663.756 143.751 668.918 142.497 674.813 142.497C680.707 142.497 685.484 143.718 689.356 146.124C693.297 148.531 696.261 151.92 698.214 156.293C700.238 160.597 701.248 165.613 701.248 171.342V175.307H659.955V166.834H688.449L686.461 168.427C686.461 163.682 685.449 160.089 683.427 157.682C681.473 155.208 678.648 153.954 674.951 153.954C670.836 153.954 667.663 155.411 665.395 158.36C663.233 161.309 662.152 165.512 662.152 171.037V172.833C662.152 178.426 663.547 182.561 666.337 185.273C669.197 187.984 673.312 189.34 678.683 189.34C681.857 189.34 684.856 188.967 687.647 188.222C690.507 187.408 693.227 186.12 695.773 184.391L700.655 195.712C697.691 197.814 694.308 199.441 690.437 200.559C686.635 201.678 682.52 202.254 678.091 202.254L678.056 202.186ZM735.498 202.186C730.37 202.186 725.837 200.966 721.896 198.559C718.024 196.153 714.955 192.729 712.688 188.256C710.526 183.815 709.445 178.46 709.445 172.189C709.445 165.919 710.526 160.699 712.688 156.259C714.851 151.818 717.92 148.429 721.896 146.09C725.837 143.684 730.37 142.464 735.498 142.464C740.171 142.464 744.287 143.548 747.949 145.751C751.68 147.853 754.157 150.734 755.412 154.326H753.913V117.754H771.49V200.966H754.157V189.781H755.656C754.436 193.543 751.924 196.56 748.228 198.83C744.496 201.101 740.276 202.22 735.532 202.22L735.498 202.186ZM740.729 189.306C744.775 189.306 748.019 187.916 750.495 185.137C752.971 182.358 754.227 178.053 754.227 172.257C754.227 166.461 752.971 162.191 750.495 159.479C748.019 156.767 744.74 155.411 740.729 155.411C736.718 155.411 733.405 156.767 730.824 159.479C728.348 162.191 727.092 166.461 727.092 172.257C727.092 178.053 728.348 182.358 730.824 185.137C733.37 187.916 736.683 189.306 740.729 189.306ZM814.211 202.186C807.936 202.186 802.425 200.966 797.682 198.559C792.939 196.153 789.312 192.696 786.766 188.154C784.22 183.645 782.93 178.29 782.93 172.087C782.93 165.885 784.22 160.53 786.766 156.157C789.417 151.716 793.043 148.328 797.682 145.988C802.425 143.65 807.901 142.497 814.211 142.497C818.154 142.497 821.991 143.073 825.723 144.192C829.528 145.311 832.627 146.904 835.037 148.937L829.909 160.699C827.954 158.97 825.723 157.682 823.176 156.869C820.701 155.953 818.292 155.513 815.955 155.513C811.215 155.513 807.553 156.936 804.902 159.817C802.252 162.664 800.961 166.834 800.961 172.257C800.961 177.68 802.287 181.815 804.902 184.696C807.553 187.543 811.215 189.001 815.955 189.001C818.186 189.001 820.563 188.594 823.038 187.747C825.585 186.934 827.889 185.68 829.909 184.019L835.037 195.678C832.562 197.712 829.423 199.339 825.618 200.525C821.886 201.644 818.089 202.22 814.211 202.22V202.186ZM871.796 202.186C865.517 202.186 860.041 200.966 855.4 198.559C850.832 196.085 847.279 192.594 844.699 188.154C842.217 183.713 840.967 178.392 840.967 172.223C840.967 166.054 842.184 160.835 844.699 156.394C847.238 151.954 850.832 148.531 855.4 146.09C860.041 143.684 865.517 142.464 871.796 142.464C878.076 142.464 883.552 143.684 888.184 146.09C892.825 148.497 896.419 151.92 898.893 156.394C901.441 160.835 902.731 166.122 902.731 172.223C902.731 178.324 901.441 183.713 898.893 188.154C896.419 192.594 892.857 196.051 888.184 198.559C883.552 200.966 878.076 202.186 871.796 202.186ZM871.796 189.306C875.845 189.306 879.017 187.916 881.313 185.137C883.722 182.358 884.907 178.053 884.907 172.257C884.907 166.461 883.69 162.191 881.313 159.479C878.976 156.767 875.804 155.411 871.796 155.411C867.78 155.411 864.543 156.767 862.134 159.479C859.797 162.191 858.645 166.461 858.645 172.257C858.645 178.053 859.797 182.358 862.134 185.137C864.543 187.916 867.748 189.306 871.796 189.306ZM914.064 200.966V158.563C914.064 156.157 914 153.717 913.821 151.209C913.683 148.632 913.44 146.124 913.123 143.65H930.006L931.296 154.292H929.901C931.605 150.666 934.12 147.819 937.47 145.718C940.813 143.616 944.756 142.565 949.323 142.565C953.891 142.565 957.59 143.616 960.624 145.718C963.732 147.751 965.93 150.971 967.253 155.344H965.403C967.115 151.411 969.833 148.328 973.532 146.09C977.264 143.751 981.483 142.599 986.229 142.599C992.889 142.599 997.838 144.531 1001.12 148.361C1004.36 152.191 1006 158.224 1006 166.461V201.067H988.419V167.037C988.419 163.038 987.762 160.19 986.432 158.461C985.109 156.733 982.984 155.852 980.055 155.852C976.566 155.852 973.808 157.072 971.788 159.479C969.76 161.885 968.754 165.207 968.754 169.443V201.101H951.173V167.071C951.173 163.071 950.508 160.224 949.185 158.495C947.863 156.767 945.737 155.886 942.8 155.886C939.32 155.886 936.562 157.106 934.541 159.513C932.586 161.919 931.645 165.24 931.645 169.477V201.135H914.064V200.966Z" fill="#007E42"/>
</g>
</svg>
