<svg width="662" height="115" viewBox="0 0 662 115" fill="none" xmlns="http://www.w3.org/2000/svg">
<g clip-path="url(#clip0_17_11)">
<path d="M232.929 18.5506C232.782 17.2221 232.251 16.9287 230.887 16.9287H214.448C213.465 16.9287 212.704 17.1507 212.328 18.6219C210.282 25.8392 202.255 53.8278 202.255 53.8278C201.142 57.8106 200.207 61.8409 199.452 65.9068C199.326 65.013 199.149 64.1273 198.921 63.2538C198.77 62.3735 198.541 61.5606 198.39 60.6049C198.218 59.6342 197.991 58.6743 197.708 57.7299C197.482 56.6988 197.102 55.5211 196.725 54.1212C196.725 54.1212 188.92 25.6924 186.954 18.5506C186.422 16.9287 185.511 16.9287 184.452 16.9287H168.089C166.8 16.9287 166.424 17.5909 166.344 18.6219C165.361 28.7142 160.363 79.6076 159.379 89.5492C159.3 90.8023 159.986 91.1671 161.27 91.2425H172.711C173.924 91.2425 174.756 91.0204 174.907 89.6206C175.438 82.3319 177.483 52.428 177.483 52.428C177.634 50.1438 177.709 47.935 177.785 45.7262C177.939 43.6642 178.015 41.6021 178.015 39.54C178.391 41.5268 178.847 43.6642 179.454 45.9483C180.06 48.3038 180.587 50.3659 181.118 52.2812C181.118 52.2812 189.681 82.4033 191.798 89.6959C192.178 90.8023 192.63 91.3178 193.843 91.3178H203.694C205.279 91.2424 205.66 91.0957 206.116 89.7712C208.387 82.3319 218.008 50.6593 218.008 50.6593C218.69 48.3792 219.221 46.4638 219.602 44.8419C219.978 43.224 220.434 41.38 220.886 39.2466C220.886 41.2333 220.965 43.224 221.041 45.2107C221.116 47.2014 221.267 49.3349 221.417 51.6904C221.417 51.6904 223.843 83.1409 224.22 90.0647C224.299 91.3178 224.977 91.3892 225.885 91.3892H238.233C238.994 91.3892 239.751 91.0204 239.596 89.7712C238.538 79.8971 233.916 28.4168 232.933 18.5506H232.929ZM293.23 36.5183H280.882C279.519 36.5183 279.293 36.7404 278.912 37.9181C277.017 43.5888 270.73 62.663 270.73 62.663C270.278 63.92 269.822 65.3199 269.442 66.7157C269.065 68.1156 268.689 69.2933 268.459 70.253C268.308 70.9152 268.158 71.7242 267.928 72.6838C267.702 73.7149 267.476 74.5992 267.321 75.4795C267.191 76.2698 267.041 77.0566 266.869 77.839C266.79 78.5012 266.715 78.87 266.715 78.9414L263.686 67.6C263.686 67.6 256.186 43.5888 254.216 37.1845C253.839 36.0028 253.007 35.7093 251.945 35.8561C248.991 36.1535 243.081 36.8157 240.132 37.1845C238.689 37.3312 238.538 38.0649 238.839 38.9492C241.947 47.8637 257.248 91.2425 257.248 91.2425H261.034C260.709 91.9196 260.406 92.6073 260.126 93.3045C259.927 93.8317 259.699 94.3479 259.445 94.8511C259.219 95.2952 258.989 95.7354 258.687 96.1756C258.394 96.6905 258.065 97.1835 257.7 97.6507C256.56 99.3852 255.125 100.906 253.459 102.144C252.325 102.953 250.882 103.615 249.217 104.206C248.084 104.575 247.021 104.943 245.963 105.237C244.75 105.606 244.599 106.561 245.051 107.446C246.038 109.286 247.707 112.232 248.611 113.925C249.142 114.885 250.129 115.107 251.037 114.956C253.007 114.591 254.898 114.076 256.793 113.485C259.071 112.691 261.235 111.602 263.23 110.245C264.293 109.508 265.276 108.699 266.187 107.668C267.095 106.637 267.932 105.459 268.839 104.059C269.672 102.659 270.584 100.966 271.487 99.0506C272.399 97.0599 273.307 94.7797 274.29 92.1268C274.29 92.1268 291.11 47.4195 294.519 38.2156C295.121 36.5937 294.213 36.5183 293.23 36.5183V36.5183ZM350.801 16.9287H337.997C336.482 16.9287 336.252 17.3728 336.252 18.6219V45.8016H313.836V18.6219C313.836 17.0754 313.082 16.8573 311.564 16.9287H300.128C298.463 16.9287 298.233 17.4442 298.233 18.6973V89.5492C298.233 90.8737 298.839 91.2425 299.672 91.2425H312.095C313.007 91.2425 313.76 91.0204 313.76 89.6206V58.0987H336.185V89.5452C336.185 90.7269 336.938 91.2425 337.929 91.2425H350.575C351.637 91.2425 352.093 90.6516 352.093 89.6206V18.6219C352.243 17.2221 351.788 16.9287 350.805 16.9287H350.801ZM442.077 35.4159C441.178 35.2492 440.264 35.1748 439.35 35.1938C436.472 35.1938 433.975 36.0028 431.699 37.5493C429.496 39.068 427.531 40.9056 425.868 43.0019C425.642 40.0556 424.881 37.478 423.521 35.1938L410.036 38.5804C410.642 40.1269 411.173 42.2683 411.55 44.9887C411.93 47.7169 412.156 50.8814 412.156 54.6368V89.6206C412.156 90.3581 412.537 91.2464 413.746 91.2464H425.488C426.475 91.2464 427.153 90.949 427.153 89.6206V52.5033C429.959 49.4102 432.988 47.935 436.321 47.935C437.079 47.935 437.836 47.935 438.593 48.0818C439.956 48.3038 440.868 48.5259 441.32 46.904C442.077 44.6199 443.29 40.8645 444.047 38.509C444.88 36.5937 443.821 35.8561 442.077 35.4159V35.4159ZM455.333 12.5824C452.685 12.5824 450.485 13.4668 448.669 15.16C447.789 15.9603 447.09 16.9399 446.62 18.033C446.149 19.126 445.918 20.3071 445.942 21.4969C445.942 23.9992 446.854 26.0612 448.669 27.8299C450.485 29.5231 452.606 30.4074 455.182 30.4074C457.834 30.4074 460.031 29.5231 461.775 27.8299C463.59 26.1366 464.502 23.9992 464.502 21.4969C464.502 18.9907 463.59 16.9287 461.846 15.16C460.031 13.3954 457.91 12.5824 455.333 12.5824V12.5824ZM461.24 35.4159C458.366 35.8561 452.003 36.8157 449.046 37.2559C447.682 37.478 447.607 37.9181 447.607 38.7311V89.6959C447.607 90.8737 448.364 91.1671 449.201 91.1671H461.319C462.381 91.1671 462.607 90.8737 462.607 89.7712V36.5937C462.607 35.3406 462.151 35.2692 461.244 35.4159H461.24ZM501.467 82.7007C501.241 81.7411 500.254 81.7411 499.647 81.8878C498.966 82.0345 498.438 82.1852 497.983 82.2566C497.261 82.4216 496.526 82.5198 495.786 82.55C493.131 82.55 491.39 81.9631 490.558 80.7854C489.725 79.6076 489.27 77.2481 489.27 73.7862V46.3171H498.89C498.89 46.3171 500.86 41.3087 501.923 38.4337C502.45 36.8871 501.542 36.5183 500.71 36.5183H489.27C489.27 33.7226 489.349 30.923 489.499 28.0519C489.575 26.2833 489.725 24.59 489.876 22.9681C490.181 20.3152 488.211 20.5373 486.998 20.7593C482.531 21.7904 474.88 23.6304 474.88 23.6304C474.575 25.6924 474.424 27.6831 474.349 29.5985C474.269 31.5099 474.269 33.8693 474.269 36.5183H468.514V46.3925H474.273V76.1457C474.273 77.3949 474.273 78.5012 474.349 79.3102C474.349 80.1231 474.424 80.8568 474.424 81.3723C474.424 81.9631 474.575 82.4787 474.725 82.9942C474.88 83.5097 475.031 84.0252 475.257 84.6161C476.168 87.043 477.984 88.9583 480.786 90.4335C483.589 91.9047 486.923 92.6423 490.708 92.6423C494.348 92.6423 498.058 91.98 501.848 90.5802C502.375 90.3581 502.831 89.9893 502.68 89.105C502.525 87.4118 501.848 84.394 501.467 82.7007V82.7007ZM552.675 82.6254C551.993 81.8164 551.387 80.9321 551.081 79.9724C550.696 79.009 550.465 77.9904 550.399 76.9547C550.324 75.8483 550.324 74.5238 550.324 73.0526L550.629 54.6368V50.9568C550.629 49.9257 550.55 49.1128 550.479 48.3792C550.399 47.6416 550.249 47.0507 550.173 46.5352C550.065 45.9756 549.887 45.432 549.642 44.9173C548.509 41.8242 546.388 39.4647 543.205 37.8468C540.022 36.2249 536.01 35.4159 531.162 35.4159C528.506 35.4159 526.009 35.638 523.511 36.1535C521.014 36.669 518.358 37.478 515.48 38.5804C513.434 39.3933 511.77 40.0556 510.406 40.7218C509.649 41.0866 508.812 41.5268 507.98 41.9709C506.616 42.7799 506.771 43.8109 507.147 44.6952C508.285 46.5352 510.176 49.5569 511.389 51.5437C512.301 52.8721 513.284 52.7214 514.422 52.2059C516.844 50.81 519.19 49.6283 521.39 48.8193C524.193 47.7169 526.766 47.2014 529.116 47.2014C531.919 47.2014 533.659 47.7883 534.571 48.9661C535.403 50.1438 535.855 52.2812 535.855 55.303V57.5118C535.253 57.4364 534.722 57.4364 534.19 57.4364H532.446C523.281 57.4364 516.312 58.983 511.77 62.0047C507.148 65.0224 504.872 69.8088 504.872 76.2925C504.872 81.8164 506.541 86.0119 509.95 88.9583C513.28 91.9047 518.207 93.3799 524.645 93.3799C529.418 93.3799 533.283 92.3488 536.236 90.3581C536.842 89.9893 537.449 89.5492 537.98 89.105C538.507 88.5895 539.114 88.074 539.72 87.4871C540.477 88.8869 541.54 90.2114 543.05 91.3178C543.886 91.98 544.794 92.5669 545.781 93.0824C547.22 93.8954 548.279 93.598 549.416 92.4202C550.931 90.8023 553.281 88.2961 554.57 86.6781C555.097 86.0119 555.402 85.0523 554.415 84.3187C553.797 83.7931 553.214 83.2275 552.671 82.6254H552.675ZM535.328 79.0921C534.265 80.236 533.007 81.1824 531.614 81.8878C530.319 82.5259 528.894 82.8544 527.451 82.8475C525.481 82.8475 523.888 82.1852 522.675 80.8568C521.466 79.5323 520.859 77.839 520.859 75.7016C520.859 72.3864 521.918 70.1776 523.963 69.0752C526.009 67.9688 529.648 67.378 534.872 67.378H535.554L535.328 79.0921V79.0921ZM606.38 46.5352C608.501 46.5352 610.32 46.2418 611.985 45.5795C613.123 45.1354 614.336 44.4731 615.545 43.5888C616.532 42.9266 616.607 41.8242 615.926 40.9399C614.863 39.4647 613.349 37.1845 612.136 35.4873C611.303 34.0914 610.55 33.7226 609.032 34.6783C607.744 35.5626 606.455 36.3002 605.016 36.8871C603.043 37.6905 600.936 38.1156 598.805 38.1402C597.822 38.1402 596.835 38.0649 595.701 37.8468C594.638 37.6247 593.275 37.3312 591.685 36.9624C589.861 36.5026 588.016 36.1334 586.155 35.8561C584.548 35.646 582.928 35.548 581.307 35.5626C577.672 35.5626 574.338 36.0028 571.31 36.8871C568.277 37.7714 565.78 39.0245 563.659 40.6464C561.612 42.1808 559.952 44.173 558.811 46.4638C557.642 48.8202 557.044 51.4192 557.067 54.0499C557.067 62.1514 561.158 67.2312 569.415 69.2219C566.989 69.8088 565.094 70.3997 563.735 71.1373C562.371 71.8709 561.309 72.6085 560.627 73.3461C559.945 74.155 559.414 74.964 559.188 75.7769C558.972 76.6186 558.87 77.4857 558.887 78.3545C558.887 80.1945 559.263 81.7411 560.096 82.9188C560.857 84.0966 561.915 84.9809 563.279 85.4964C565.931 86.6028 570.474 87.1183 577.066 87.1937L583.428 87.265C586.381 87.3404 588.958 87.7806 590.928 88.7402C592.974 89.6206 593.957 91.3178 593.957 93.82C593.957 94.9264 593.655 96.0288 592.974 96.9885C592.249 97.9847 591.319 98.8137 590.246 99.4193C589.033 100.153 587.67 100.597 586.08 100.891C584.491 101.113 582.75 101.259 580.776 101.259C577.292 101.259 574.564 100.668 572.749 99.5661C570.929 98.4597 570.022 96.7664 570.022 94.5576C570.022 93.7487 570.022 93.1578 570.097 92.7176C570.172 92.2735 570.323 90.8737 568.959 91.0204H556.686C556.343 91.6891 556.04 92.3777 555.779 93.0824C555.477 93.8954 555.327 95.0731 555.327 96.5443C555.327 100.228 556.912 103.468 560.02 106.268C562.676 108.552 565.927 110.098 569.792 110.907C573.657 111.716 577.672 112.161 581.763 112.161C586.231 112.161 590.548 111.645 594.567 110.539C598.579 109.436 601.913 107.668 604.41 105.09C607.442 101.922 609.032 98.1662 609.032 93.7487C609.032 88.8869 607.367 84.9849 604.109 82.1099C602.099 80.3481 599.716 79.0642 597.14 78.3545C594.488 77.6169 591.079 77.2481 586.687 77.1768L578.58 77.1014C576.915 77.1014 576.083 76.6612 576.083 75.8483C576.083 75.0393 576.61 74.3018 577.597 73.6395C578.58 72.9773 580.094 72.1683 582.065 71.3554C582.671 71.4307 583.048 71.4307 583.278 71.4307H584.261C587.293 71.4307 590.167 70.9906 592.744 70.1776C595.32 69.3687 597.592 68.2623 599.487 66.7911C601.381 65.3912 602.896 63.6226 603.883 61.6359C604.946 59.6161 605.491 57.3636 605.468 55.0809C605.468 53.2369 605.167 51.619 604.636 50.1438C604.034 48.6649 603.19 47.2965 602.139 46.095C602.594 46.1664 603.201 46.2418 603.883 46.3171C604.866 46.5352 605.623 46.5352 606.38 46.5352V46.5352ZM581.081 61.9293C578.425 61.9293 576.309 61.3385 574.715 60.0893C573.05 58.9116 572.218 56.8495 572.218 54.1212C572.218 51.5437 572.975 49.5569 574.564 48.1571C576.158 46.7573 578.354 46.0197 581.157 46.0197C584.035 46.0197 586.231 46.7573 587.82 48.1571C589.414 49.5569 590.246 51.5437 590.246 54.1212C590.322 59.3518 587.218 61.9333 581.081 61.9333V61.9293ZM659.709 68.3376C662.361 68.3376 661.98 65.0224 661.98 65.0224C661.98 59.2764 661.374 54.49 660.165 50.6593C659.05 47.0478 657.074 43.7621 654.405 41.0866C652.514 39.2466 650.163 37.8468 647.21 36.8157C644.257 35.7847 641.149 35.3406 637.815 35.3406C634.03 35.3406 630.62 35.9314 627.742 37.1845C624.789 38.3623 622.137 40.2776 619.787 42.7085C617.276 45.3221 615.386 48.4679 614.257 51.9124C613.123 55.303 612.592 59.4985 612.592 64.4356C612.592 68.7064 613.198 72.6085 614.487 76.0704C615.775 79.5323 617.59 82.55 619.941 84.9809C622.373 87.4597 625.285 89.4151 628.5 90.7269C631.829 92.0514 635.619 92.789 639.71 92.789C647.135 92.789 653.878 90.5802 660.085 86.1626C660.997 85.5678 661.148 84.6875 660.466 83.8785C659.483 82.4033 657.739 79.9011 656.68 78.2792C655.768 76.808 654.785 77.1768 654.024 77.7637C649.862 80.6387 645.466 82.1099 640.923 82.1099C637.058 82.1099 634.029 81.0035 631.984 78.7233C629.863 76.4392 628.88 73.1993 628.88 68.8492V68.413C628.801 68.3337 652.209 68.3337 659.709 68.3337V68.3376ZM629.027 57.6585C629.027 53.8278 629.788 50.8814 631.378 48.8193C632.967 46.7573 635.167 45.8016 637.97 45.8016C640.923 45.8016 643.123 46.904 644.558 49.0414C645.24 50.0724 645.696 51.1749 645.997 52.3566C646.227 53.5343 646.378 55.2276 646.378 57.2897V57.9519H628.955V57.6585H629.031H629.027ZM404.732 50.6593C403.619 47.0482 401.643 43.7625 398.976 41.0866C397.081 39.2466 394.734 37.8468 391.781 36.8157C388.828 35.7847 385.72 35.3406 382.386 35.3406C378.601 35.3406 375.191 35.9314 372.314 37.1845C369.356 38.3623 366.708 40.2776 364.358 42.7085C361.847 45.3221 359.957 48.4679 358.828 51.9124C357.694 55.303 357.163 59.4985 357.163 64.4356C357.163 68.7064 357.769 72.6085 359.058 76.0704C360.342 79.5323 362.162 82.55 364.508 84.9809C366.941 87.4602 369.855 89.4156 373.071 90.7269C376.401 92.0514 380.19 92.789 384.281 92.789C391.706 92.789 398.445 90.5802 404.656 86.1626C405.568 85.5678 405.719 84.6875 405.037 83.8785C404.05 82.4033 402.31 79.9011 401.247 78.2792C400.34 76.808 399.356 77.1768 398.599 77.7637C394.433 80.6387 390.037 82.1099 385.494 82.1099C381.629 82.1099 378.597 81.0035 376.555 78.7233C374.434 76.4392 373.447 73.1993 373.447 68.8492V68.413H404.355C407.007 68.413 406.627 65.0978 406.627 65.0978C406.627 59.2764 406.02 54.49 404.732 50.6633V50.6593ZM391.024 57.8766H373.602V57.6585C373.602 53.8278 374.355 50.8814 375.949 48.8193C377.538 46.7573 379.734 45.8016 382.537 45.8016C385.494 45.8016 387.69 46.904 389.129 49.0414C389.811 50.0724 390.267 51.1749 390.568 52.3566C390.794 53.5343 390.949 55.2276 390.949 57.2897V57.8806H391.024V57.8766ZM80.3716 0.289344C108.322 1.90727 130.442 25.9185 130.442 53.4669C130.442 81.0074 108.322 105.094 80.3716 106.641C120.821 110.102 145.818 82.6293 145.818 53.463C145.818 24.3719 120.896 -3.10117 80.3716 0.285378V0.289344ZM15.3766 53.5343C15.3806 25.9899 37.5001 1.90331 65.4468 0.356757C25.4493 -3.25186 0 24.368 0 53.5343C0 82.7007 26.0598 110.836 65.4468 106.712C37.5001 105.086 15.3806 81.0749 15.3806 53.5343H15.3766ZM126.125 53.5343C125.82 24.9588 102.261 1.75659 72.8715 1.75659C43.4819 1.75659 19.6935 24.9549 19.6935 53.5343C19.6935 78.5012 37.8767 99.344 61.9624 104.055C69.9936 105.602 71.1313 85.7185 68.9312 72.4618C68.8559 72.4618 66.5092 72.315 65.6767 72.315C64.0118 72.2397 62.4936 74.0837 61.4352 74.4485C59.691 75.0393 59.3897 73.4174 58.1767 73.4174C57.1143 73.4174 55.6001 75.0393 51.5845 74.3018C47.4935 73.5681 46.2092 69.9595 46.2092 69.9595L44.9962 69.3647C40.8299 68.3337 40.604 63.9914 40.604 63.694C40.3741 61.5606 44.239 59.9426 43.1806 59.2764C38.4792 56.4054 39.9975 54.1212 40.0728 53.9745C40.6793 52.428 42.9507 49.1128 42.1183 48.5973C39.8429 47.2014 43.6325 38.8778 46.891 36.5937C47.4182 33.9407 50.3001 29.6699 53.1027 28.7856C52.9481 25.8392 57.265 24.1459 57.265 24.1459C60.2975 23.1902 58.1767 20.8307 63.9326 21.1995C65.2962 21.2749 65.2209 19.7997 68.5547 19.7283C69.5377 19.7283 70.6001 18.9907 73.5534 18.9907C78.7066 18.7687 78.4767 22.1592 80.2209 21.5683C82.417 20.8307 89.6871 24.2926 90.4482 31.5099C93.7027 31.2918 102.34 40.4957 102.111 47.2728C107.791 53.459 100.065 59.2764 99.7638 60.4581C99.9897 61.1204 101.127 63.92 100.676 66.0535C100.14 68.6311 96.8106 71.3554 96.656 71.5061C94.3092 73.124 92.6443 74.964 89.8378 74.4485C86.9598 73.933 87.491 71.3554 86.6586 70.7685C85.5598 71.7404 84.2737 72.4769 82.8794 72.9325C81.4852 73.3881 80.0125 73.5531 78.552 73.4174C77.8474 73.3237 77.1402 73.251 76.4313 73.1993C74.7664 82.9188 74.9923 104.646 82.0365 104.646C103.324 101.335 126.426 81.3009 126.125 53.5304V53.5343Z" fill="#333333"/>
</g>
<defs>
<clipPath id="clip0_17_11">
<rect width="662" height="115" fill="white"/>
</clipPath>
</defs>
</svg>
