<svg width="133" height="102" viewBox="0 0 133 102" fill="none" xmlns="http://www.w3.org/2000/svg">
<path d="M73 1.00001C109.7 -2.19999 132.3 23.6 132.3 51C132.3 78.4 109.6 104.2 73 101C98.3 99.5 118.4 76.9 118.4 51C118.4 25.1 98.3 2.50001 73 1.00001ZM18 51C18 24.1 39.6 2.4 66.2 2.4C92.8 2.4 114.2 24.2 114.4 51C114.7 77.1 93.8 95.9 74.4 98.9C68 98.9 67.8 78.5 69.3 69.3C69.5 69.3 70.9 69.5 71.3 69.5C74.5 69.8 77 68.5 78.7 67C79.5 67.6 79 70 81.6 70.5C84.1 71 85.7 69.2 87.8 67.7C87.9 67.6 90.9 65 91.4 62.6C91.8 60.6 90.8 57.9 90.6 57.3C90.9 56.2 97.9 50.7 92.7 44.9C92.9 38.5 85.1 29.9 82.2 30.1C81.5 23.4 74.9 20.1 72.9 20.8C71.3 21.3 71.5 18.1 66.8 18.3C64.1 18.3 63.2 19 62.3 19C59.3 19.1 59.3 20.5 58.1 20.4C52.9 20 54.8 22.3 52.1 23.2C52.1 23.2 48.2 24.8 48.4 27.6C45.8 28.5 43.2 32.5 42.8 35C39.8 37.2 36.4 45 38.4 46.3C39.2 46.8 37.1 49.9 36.6 51.3C36.6 51.4 35.2 53.5 39.4 56.3C40.4 56.9 36.9 58.5 37.1 60.5C37.1 60.7 37.3 64.9 41.1 65.8L42.2 66.4C42.2 66.4 43.4 69.8 47.1 70.5C50.7 71.2 52.1 69.6 53.1 69.6C54.2 69.6 54.5 71.2 56.1 70.6C57 70.3 58.4 68.5 59.9 68.6C60.6 68.6 62.8 68.8 62.8 68.8C64.8 81.2 63.8 99.9 56.5 98.5C34.5 94.1 18 74.5 18 51ZM0.100006 51C0.100006 23.6 23.2 -2.39999 59.4 1.00001C34.1 2.50001 14 25.1 14 51C14 76.9 34.1 99.5 59.4 101C23.7 104.9 0.100006 78.4 0.100006 51Z" fill="#E46E2D"/>
</svg>
